<svg xmlns="http://www.w3.org/2000/svg" width="30.057" height="31.003" viewBox="0 0 30.057 31.003"><path id="alt-administrador_1_" data-name="alt-administrador (1)" d="M10.168,15.252A7.626,7.626,0,1,0,2.542,7.626,7.634,7.634,0,0,0,10.168,15.252Zm0-12.71A5.084,5.084,0,1,1,5.084,7.626,5.089,5.089,0,0,1,10.168,2.542Zm1.261,16.444a1.271,1.271,0,0,1-1.1,1.418,8.9,8.9,0,0,0-7.783,8.828,1.271,1.271,0,1,1-2.542,0,11.449,11.449,0,0,1,10.01-11.35,1.275,1.275,0,0,1,1.418,1.1Zm17.417,5.332L27.608,23.6a5.826,5.826,0,0,0,0-4l1.238-.714a1.271,1.271,0,0,0-1.271-2.2l-1.237.714a6.319,6.319,0,0,0-3.461-2.026v-1.4a1.271,1.271,0,0,0-2.542,0v1.4a6.334,6.334,0,0,0-3.461,2.026l-1.237-.714a1.271,1.271,0,1,0-1.271,2.2l1.238.714a5.826,5.826,0,0,0,0,4l-1.238.714a1.271,1.271,0,1,0,1.271,2.2l1.237-.714a6.319,6.319,0,0,0,3.461,2.026v1.4a1.271,1.271,0,0,0,2.542,0v-1.4A6.334,6.334,0,0,0,26.339,25.8l1.237.714a1.271,1.271,0,1,0,1.271-2.2Zm-7.239,1.1a3.813,3.813,0,1,1,3.813-3.813A3.818,3.818,0,0,1,21.607,25.418Z" transform="translate(0.251 0.25)" fill="#ff6801" stroke="#ff6900" stroke-width="0.5"></path></svg>