<svg xmlns="http://www.w3.org/2000/svg" id="calendario" width="20.092" height="20.092" viewBox="0 0 20.092 20.092"><path id="Path_9003" data-name="Path 9003" d="M15.906,1.674h-.837V.837a.837.837,0,1,0-1.674,0v.837H6.7V.837a.837.837,0,1,0-1.674,0v.837H4.186A4.191,4.191,0,0,0,0,5.86V15.906a4.191,4.191,0,0,0,4.186,4.186h11.72a4.191,4.191,0,0,0,4.186-4.186V5.86A4.191,4.191,0,0,0,15.906,1.674ZM1.674,5.86A2.511,2.511,0,0,1,4.186,3.349h11.72A2.511,2.511,0,0,1,18.417,5.86V6.7H1.674ZM15.906,18.417H4.186a2.511,2.511,0,0,1-2.511-2.511V8.372H18.417v7.534A2.511,2.511,0,0,1,15.906,18.417Z"></path><circle id="Ellipse_39" data-name="Ellipse 39" cx="1.256" cy="1.256" r="1.256" transform="translate(8.79 11.302)"></circle><circle id="Ellipse_40" data-name="Ellipse 40" cx="1.256" cy="1.256" r="1.256" transform="translate(4.604 11.302)"></circle><circle id="Ellipse_41" data-name="Ellipse 41" cx="1.256" cy="1.256" r="1.256" transform="translate(12.976 11.302)"></circle></svg>