<svg xmlns="http://www.w3.org/2000/svg" id="carga-en-la-nube" width="23.659" height="22.758" viewBox="0 0 23.659 22.758"><path id="Path_171" data-name="Path 171" d="M22.091,9.867a8.148,8.148,0,0,0-4.377-3.018A8.058,8.058,0,1,0,2.562,12.207,5.7,5.7,0,0,0,.185,18.434a5.764,5.764,0,0,0,5.672,4.243H8.375A1.478,1.478,0,0,0,9.853,21.2h0A1.478,1.478,0,0,0,8.375,19.72H5.857a2.851,2.851,0,0,1-2.8-2.012,2.759,2.759,0,0,1,1.971-3.4A1.478,1.478,0,0,0,5.843,12a5.124,5.124,0,0,1-.8-4.5A5.025,5.025,0,0,1,8.69,4.015,5.507,5.507,0,0,1,9.935,3.87,5.065,5.065,0,0,1,13.008,4.9a5.14,5.14,0,0,1,1.985,3.392,1.486,1.486,0,0,0,1.269,1.281,5.15,5.15,0,0,1,3.446,2.046,5.08,5.08,0,0,1,.907,3.9,4.957,4.957,0,0,1-2.213,3.27,1.478,1.478,0,0,0-.664,1.238h0A1.493,1.493,0,0,0,20.015,21.3a7.9,7.9,0,0,0,3.513-5.284A8.008,8.008,0,0,0,22.091,9.867Z" transform="translate(0.007 -0.904)" fill="rgba(18,18,18,0.5)"></path><path id="Path_172" data-name="Path 172" d="M15.417,22.344V16.924h1.639a.985.985,0,0,0,.7-1.682l-3.117-3.117a.985.985,0,0,0-1.393,0l-3.117,3.117a.985.985,0,0,0,.7,1.682h1.639v5.419a1.478,1.478,0,0,0,2.956,0Z" transform="translate(-0.137 -1.064)" fill="rgba(18,18,18,0.5)"></path></svg>