<svg xmlns="http://www.w3.org/2000/svg" width="30.5" height="30.503" viewBox="0 0 30.5 30.503"><path id="conectado-al-grafico" d="M30.5,15.228a5.076,5.076,0,0,0-3.313-4.746l-.048-.116A12.8,12.8,0,0,0,20.41,3.479L19.992,3.3a5.059,5.059,0,0,0-9.483,0l-.531.239a12.949,12.949,0,0,0-6.653,6.942,5.058,5.058,0,0,0-.038,9.49l.163.381a12.835,12.835,0,0,0,6.56,6.644l.5.224a5.06,5.06,0,0,0,9.48,0l.466-.207A12.953,12.953,0,0,0,27.2,19.977,5.083,5.083,0,0,0,30.5,15.228ZM15.25,2.541a2.542,2.542,0,1,1-2.542,2.542A2.542,2.542,0,0,1,15.25,2.541ZM5.068,12.688l.1.039.013-.032a2.43,2.43,0,1,1-.117-.008ZM15.25,27.957a2.542,2.542,0,1,1,2.542-2.542A2.542,2.542,0,0,1,15.25,27.957ZM20.2,24.29a5.072,5.072,0,0,0-9.9,0A10.285,10.285,0,0,1,6.2,20.18a5.072,5.072,0,0,0,.032-9.887A10.408,10.408,0,0,1,10.3,6.226a5.072,5.072,0,0,0,9.893,0,10.452,10.452,0,0,1,4.078,4.058,5.072,5.072,0,0,0,.019,9.893A10.429,10.429,0,0,1,20.2,24.29Zm5.219-6.52a2.542,2.542,0,1,1,2.542-2.542A2.542,2.542,0,0,1,25.416,17.769Z" transform="translate(0 -0.001)" fill="#ff6900"></path></svg>