<svg xmlns="http://www.w3.org/2000/svg" width="30.952" height="30.952" viewBox="0 0 30.952 30.952"><path id="transferencia-de-datos" d="M10.317,0H5.159A5.159,5.159,0,0,0,0,5.159v1.29a5.159,5.159,0,0,0,5.159,5.159h1.29v2.579H3.869a1.29,1.29,0,0,0,0,2.579h7.738a1.29,1.29,0,0,0,0-2.579H9.028V11.607h1.29a5.159,5.159,0,0,0,5.159-5.159V5.159A5.159,5.159,0,0,0,10.317,0ZM12.9,6.448a2.579,2.579,0,0,1-2.579,2.579H5.159A2.579,2.579,0,0,1,2.579,6.448V5.159A2.579,2.579,0,0,1,5.159,2.579h5.159A2.579,2.579,0,0,1,12.9,5.159Zm12.9,7.738H23.214a5.159,5.159,0,0,0-5.159,5.159v6.448a5.159,5.159,0,0,0,5.159,5.159h2.579a5.159,5.159,0,0,0,5.159-5.159V19.345A5.159,5.159,0,0,0,25.793,14.186Zm2.579,11.607a2.579,2.579,0,0,1-2.579,2.579H23.214a2.579,2.579,0,0,1-2.579-2.579V19.345a2.579,2.579,0,0,1,2.579-2.579h2.579a2.579,2.579,0,0,1,2.579,2.579ZM18.055,5.159a1.29,1.29,0,0,1,1.29-1.29h2.579a3.869,3.869,0,0,1,3.869,3.869v2.579a1.29,1.29,0,0,1-2.579,0V7.738a1.29,1.29,0,0,0-1.29-1.29H19.345A1.29,1.29,0,0,1,18.055,5.159ZM15.476,25.793a1.29,1.29,0,0,1-1.29,1.29H10.317a3.869,3.869,0,0,1-3.869-3.869V20.635a1.29,1.29,0,0,1,2.579,0v2.579a1.29,1.29,0,0,0,1.29,1.29h3.869A1.29,1.29,0,0,1,15.476,25.793Zm10.317,0A1.29,1.29,0,1,1,24.5,24.5,1.29,1.29,0,0,1,25.793,25.793Z" fill="#ff6801"></path></svg>