<svg xmlns="http://www.w3.org/2000/svg" width="25.459" height="30.551" viewBox="0 0 25.459 30.551"><g id="verificacion-de-escudo" transform="translate(-2)"><path id="Path_182" data-name="Path 182" d="M23.107,2.724,15.132.065a1.273,1.273,0,0,0-.8,0L6.352,2.724A6.356,6.356,0,0,0,2,8.762v6.514C2,24.9,13.711,30.22,14.213,30.442a1.273,1.273,0,0,0,1.034,0c.5-.221,12.213-5.539,12.213-15.166V8.762a6.356,6.356,0,0,0-4.352-6.038Zm1.806,12.551c0,6.944-8.044,11.5-10.184,12.588C12.587,26.778,4.546,22.237,4.546,15.276V8.762A3.819,3.819,0,0,1,7.158,5.139L14.73,2.615,22.3,5.139a3.819,3.819,0,0,1,2.612,3.623Z" transform="translate(0)" fill="#ff6801"></path><path id="Path_183" data-name="Path 183" d="M17.53,8.38,12.2,13.726,9.342,10.748a1.273,1.273,0,1,0-1.834,1.764l2.935,3.055a2.383,2.383,0,0,0,1.712.764H12.2a2.384,2.384,0,0,0,1.7-.7l5.438-5.438A1.278,1.278,0,1,0,17.53,8.38Z" transform="translate(1.4 2.186)" fill="#ff6801"></path></g></svg>