<svg xmlns="http://www.w3.org/2000/svg" xmlns:xlink="http://www.w3.org/1999/xlink" id="Group_26" data-name="Group 26" width="177.992" height="29.117" viewBox="0 0 177.992 29.117"><defs><clipPath id="clip-path"><rect id="Rectangle_2136" data-name="Rectangle 2136" width="177.992" height="29.117" fill="none"></rect></clipPath></defs><path id="Path_32" data-name="Path 32" d="M18.744,18.815v8.161H7.587V18.815H0V41.13H7.587V32.4H18.744V41.13H26.3V18.815Z" transform="translate(0 -14.989)" fill="#fff"></path><g id="Group_25" data-name="Group 25"><g id="Group_24" data-name="Group 24" clip-path="url(#clip-path)"><path id="Path_33" data-name="Path 33" d="M161.534,53.32h-14.7c.414,1.753,1.626,3.156,4.431,3.156a4.255,4.255,0,0,0,3.825-1.977h6.184c-1.084,4.654-5.387,6.216-10.01,6.216-5.451,0-10.966-2.391-10.966-8.958S145.85,42.8,151.11,42.8c4.814,0,10.9,2.614,10.424,10.52m-6.5-3.539a3.659,3.659,0,0,0-3.921-2.742c-2.423,0-3.666,1.179-4.144,2.742Z" transform="translate(-111.772 -34.097)" fill="#fff"></path><rect id="Rectangle_2135" data-name="Rectangle 2135" width="6.95" height="16.991" transform="translate(51.706 9.15)" fill="#fff"></rect><path id="Path_34" data-name="Path 34" d="M332.223,49.3V60.237h-6.95V50.9c0-1.881-.191-3.347-2.518-3.347s-2.678,1.434-2.678,3.347v9.34h-6.95V50.9c0-1.881-.223-3.347-2.55-3.347s-2.646,1.434-2.646,3.347v9.34h-6.949V43.246h6.949v2.072a6.149,6.149,0,0,1,5.356-2.518c2.933,0,4.845.829,5.866,2.518a7.936,7.936,0,0,1,5.993-2.518c4.686,0,7.077,2.168,7.077,6.5" transform="translate(-239.777 -34.097)" fill="#fff"></path><path id="Path_35" data-name="Path 35" d="M479.383,53.288h6.439c-.861,5.419-5.9,7.428-10.711,7.428-5.228,0-11.093-2.391-11.093-8.958s5.866-8.958,11.093-8.958c4.814,0,9.851,2.008,10.711,7.4h-6.439c-.446-1.626-1.785-2.869-4.272-2.869-3.22,0-4.431,2.136-4.431,4.431s1.211,4.431,4.431,4.431c2.487,0,3.825-1.275,4.272-2.9" transform="translate(-369.659 -34.097)" fill="#fff"></path><path id="Path_36" data-name="Path 36" d="M704.863,43.086v5.866h-.574a8.986,8.986,0,0,0-3.538-.765c-3.57,0-4.559,2.168-4.559,4.814v7.236h-6.95V43.245h6.95v2.614c.638-1.116,2.518-3.06,6.216-3.06a8.045,8.045,0,0,1,2.455.287" transform="translate(-549.084 -34.096)" fill="#fff"></path><path id="Path_37" data-name="Path 37" d="M791.991,53.32h-14.7c.414,1.753,1.626,3.156,4.431,3.156a4.255,4.255,0,0,0,3.825-1.977h6.184c-1.084,4.654-5.388,6.216-10.01,6.216-5.451,0-10.966-2.391-10.966-8.958s5.547-8.958,10.807-8.958c4.814,0,10.9,2.614,10.424,10.52m-6.5-3.539a3.659,3.659,0,0,0-3.921-2.742c-2.423,0-3.666,1.179-4.144,2.742Z" transform="translate(-614.025 -34.097)" fill="#fff"></path><path id="Path_38" data-name="Path 38" d="M261.028,3.464A3.464,3.464,0,1,1,257.565,0a3.464,3.464,0,0,1,3.464,3.464" transform="translate(-202.429)" fill="#fff"></path><path id="Path_39" data-name="Path 39" d="M616.062,57.417A5.062,5.062,0,1,1,611,52.355a5.062,5.062,0,0,1,5.062,5.062" transform="translate(-482.72 -41.709)" fill="#fff"></path><path id="Path_40" data-name="Path 40" d="M617.2,44.989h-6.146a.39.39,0,0,0-.327.6A10.939,10.939,0,0,1,594.5,59.925a.244.244,0,0,0-.34.349,13.988,13.988,0,0,0,13.531,4.349A13.725,13.725,0,0,0,618.17,54.331a14.111,14.111,0,0,0-.967-9.342" transform="translate(-473.29 -35.84)" fill="#ff6900"></path></g></g></svg>