<svg xmlns="http://www.w3.org/2000/svg" width="33.904" height="40.685" viewBox="0 0 33.904 40.685"><g id="cerrar" transform="translate(-2)"><path id="Path_12780" data-name="Path 12780" d="M30.818,14.28V11.866a11.866,11.866,0,1,0-23.733,0V14.28A8.476,8.476,0,0,0,2,22.038V32.209a8.486,8.486,0,0,0,8.476,8.476H27.428A8.486,8.486,0,0,0,35.9,32.209V22.038A8.476,8.476,0,0,0,30.818,14.28ZM10.476,11.866a8.476,8.476,0,1,1,16.952,0v1.7H10.476ZM32.514,32.209a5.086,5.086,0,0,1-5.086,5.086H10.476A5.086,5.086,0,0,1,5.39,32.209V22.038a5.086,5.086,0,0,1,5.086-5.086H27.428a5.086,5.086,0,0,1,5.086,5.086Z" transform="translate(0 0)" fill="#f0650b"></path><path id="Path_12781" data-name="Path 12781" d="M12.7,14A1.7,1.7,0,0,0,11,15.7v3.39a1.7,1.7,0,1,0,3.39,0V15.7A1.7,1.7,0,0,0,12.7,14Z" transform="translate(6.257 9.733)" fill="#f0650b"></path></g></svg>