<svg xmlns="http://www.w3.org/2000/svg" width="41.262" height="40.685" viewBox="0 0 41.262 40.685"><path id="comenta-alt-check" d="M29.74,10.812l2.414,2.447L20.476,24.79a3.441,3.441,0,0,1-4.855-.007l-6.507-6.36,2.4-2.46,6.521,6.373,11.7-11.524ZM41.262,5.158V34.385H29.482l-6.614,5.467a3.334,3.334,0,0,1-2.223.832,3.457,3.457,0,0,1-2.3-.872L11.9,34.385H0V5.158A5.164,5.164,0,0,1,5.158,0H36.1A5.164,5.164,0,0,1,41.262,5.158Zm-3.439,0A1.721,1.721,0,0,0,36.1,3.439H5.158A1.722,1.722,0,0,0,3.439,5.158V30.947h9.721L20.6,37.214l7.647-6.267h9.58Z" fill="#ff6801"></path></svg>