<svg xmlns="http://www.w3.org/2000/svg" id="estadisticas" width="41.883" height="41.882" viewBox="0 0 41.883 41.882"><path id="Path_12440" data-name="Path 12440" d="M9.6,36.647a4.363,4.363,0,0,1-4.363-4.363V2.618A2.618,2.618,0,0,0,2.618,0h0A2.618,2.618,0,0,0,0,2.618V32.284a9.6,9.6,0,0,0,9.6,9.6H39.265a2.618,2.618,0,0,0,2.618-2.618h0a2.618,2.618,0,0,0-2.618-2.618Z" transform="translate(0)" fill="#ff6801"></path><path id="Path_12441" data-name="Path 12441" d="M20.618,24.706a2.618,2.618,0,0,0,2.618-2.618V11.618a2.618,2.618,0,1,0-5.235,0V22.088A2.618,2.618,0,0,0,20.618,24.706Z" transform="translate(13.412 6.706)" fill="#ff6801"></path><path id="Path_12442" data-name="Path 12442" d="M8.618,24.706a2.618,2.618,0,0,0,2.618-2.618V11.618a2.618,2.618,0,0,0-5.235,0V22.088A2.618,2.618,0,0,0,8.618,24.706Z" transform="translate(4.471 6.706)" fill="#ff6801"></path><path id="Path_12443" data-name="Path 12443" d="M14.618,28.431a2.618,2.618,0,0,0,2.618-2.618V6.618a2.618,2.618,0,1,0-5.235,0v19.2A2.618,2.618,0,0,0,14.618,28.431Z" transform="translate(8.941 2.98)" fill="#ff6801"></path></svg>