<svg xmlns="http://www.w3.org/2000/svg" width="120" height="120" viewBox="0 0 120 120"><g id="Group_6815" data-name="Group 6815" transform="translate(-5483 -5700)"><rect id="Rectangle_2369" data-name="Rectangle 2369" width="120" height="120" rx="60" transform="translate(5483 5700)" fill="#ff6801"></rect><path id="socio-de-la-red-de-personas" d="M9.978,0a9.978,9.978,0,1,0,9.978,9.978A9.988,9.988,0,0,0,9.978,0Zm4.616,14.75a4.971,4.971,0,0,0-4.6-3.11H9.964a4.968,4.968,0,0,0-4.6,3.106,6.652,6.652,0,1,1,9.236,0ZM12.472,7.483A2.494,2.494,0,1,1,9.978,4.989,2.5,2.5,0,0,1,12.472,7.483ZM29.933,19.955a9.978,9.978,0,1,0,9.978,9.978A9.988,9.988,0,0,0,29.933,19.955Zm4.616,14.75a4.971,4.971,0,0,0-4.6-3.11h-.027a4.968,4.968,0,0,0-4.6,3.106,6.652,6.652,0,1,1,9.236,0Zm-2.122-7.267a2.494,2.494,0,1,1-2.494-2.494A2.5,2.5,0,0,1,32.427,27.438ZM23.281,6.652a1.662,1.662,0,0,1,1.663-1.663H28.27a6.658,6.658,0,0,1,6.652,6.652v3.326a1.663,1.663,0,1,1-3.326,0V11.64A3.329,3.329,0,0,0,28.27,8.315H24.944A1.662,1.662,0,0,1,23.281,6.652ZM16.629,33.258a1.662,1.662,0,0,1-1.663,1.663H11.64A6.658,6.658,0,0,1,4.989,28.27V24.944a1.663,1.663,0,0,1,3.326,0V28.27A3.329,3.329,0,0,0,11.64,31.6h3.326A1.662,1.662,0,0,1,16.629,33.258Z" transform="translate(5523.045 5740.045)" fill="#fff"></path></g></svg>