<svg xmlns="http://www.w3.org/2000/svg" width="120" height="120" viewBox="0 0 120 120"><g id="Group_6814" data-name="Group 6814" transform="translate(-5279 -5700)"><rect id="Rectangle_2368" data-name="Rectangle 2368" width="120" height="120" rx="60" transform="translate(5279 5700)" fill="#ff6801"></rect><path id="enrutador-wifi-alternativo" d="M33.258,19.955H6.652A6.658,6.658,0,0,0,0,26.607v3.326A6.63,6.63,0,0,0,3.326,35.66v2.588a1.663,1.663,0,0,0,3.326,0V36.584H33.258v1.663a1.663,1.663,0,0,0,3.326,0V35.66a6.63,6.63,0,0,0,3.326-5.727V26.607A6.658,6.658,0,0,0,33.258,19.955Zm3.326,9.978a3.329,3.329,0,0,1-3.326,3.326H6.652a3.329,3.329,0,0,1-3.326-3.326V26.607a3.329,3.329,0,0,1,3.326-3.326H33.258a3.329,3.329,0,0,1,3.326,3.326ZM26.512,12.143a11.185,11.185,0,0,0-13.115,0,1.661,1.661,0,0,1-1.984-2.666,14.334,14.334,0,0,1,17.085,0,1.661,1.661,0,0,1-1.984,2.666Zm-2.731,2.237a1.663,1.663,0,1,1-1.734,2.839,4.084,4.084,0,0,0-4.187,0,1.663,1.663,0,1,1-1.734-2.839A7.472,7.472,0,0,1,23.781,14.379ZM6.833,6.863a1.663,1.663,0,0,1,.253-2.338,20.561,20.561,0,0,1,25.737,0,1.663,1.663,0,1,1-2.085,2.591,17.233,17.233,0,0,0-21.565,0,1.666,1.666,0,0,1-2.338-.253ZM11.64,28.27a2.494,2.494,0,1,1-2.494-2.494A2.5,2.5,0,0,1,11.64,28.27Zm6.652,0A2.494,2.494,0,1,1,15.8,25.775,2.5,2.5,0,0,1,18.292,28.27Z" transform="translate(5319.045 5740.045)" fill="#fff"></path></g></svg>