<svg xmlns="http://www.w3.org/2000/svg" width="120" height="120" viewBox="0 0 120 120"><g id="Group_6819" data-name="Group 6819" transform="translate(-4688 -6198)"><rect id="Rectangle_2371" data-name="Rectangle 2371" width="120" height="120" rx="60" transform="translate(4688 6198)" fill="#ff6801"></rect><path id="virus-escudo_1_" data-name="virus-escudo (1)" d="M26.616,3.158,17.32.076a1.483,1.483,0,0,0-.936,0l-9.3,3.082A7.416,7.416,0,0,0,2,10.207v7.68c0,9.746,10.4,15.708,13.594,17.3l.6.3a1.49,1.49,0,0,0,1.218.049l.619-.25C21.238,34,31.7,28.931,31.7,17.885v-7.68a7.416,7.416,0,0,0-5.088-7.049Zm2.118,14.729c0,9.183-9.041,13.532-11.812,14.646-2.8-1.4-11.952-6.6-11.952-14.646v-7.68a4.452,4.452,0,0,1,3.054-4.23l8.828-2.927,8.828,2.927a4.45,4.45,0,0,1,3.054,4.23Zm-5.322-6.008c.042,0,.082,0,.123,0a2.228,2.228,0,1,0-2.228-2.228c0,.042,0,.083,0,.123l-.9.9a6.636,6.636,0,0,0-2.07-.86V8.911a1.485,1.485,0,1,0-2.97,0V9.82a6.642,6.642,0,0,0-2.07.86l-.9-.9c0-.042,0-.082,0-.123a2.228,2.228,0,1,0-2.228,2.228c.042,0,.083,0,.123,0l.9.9a6.636,6.636,0,0,0-.86,2.07H9.426a1.485,1.485,0,1,0,0,2.97h.909a6.642,6.642,0,0,0,.86,2.07l-.9.9c-.042,0-.082,0-.123,0A2.228,2.228,0,1,0,12.4,23.021c0-.042,0-.083,0-.123l.9-.9a6.636,6.636,0,0,0,2.07.86v.909a1.485,1.485,0,1,0,2.97,0v-.909a6.642,6.642,0,0,0,2.07-.86l.9.9c0,.042,0,.082,0,.123a2.228,2.228,0,1,0,2.228-2.228c-.042,0-.083,0-.123,0l-.9-.9a6.636,6.636,0,0,0,.86-2.07h.909a1.485,1.485,0,1,0,0-2.97H23.37a6.642,6.642,0,0,0-.86-2.07l.9-.9Zm-6.56,8.172a3.713,3.713,0,1,1,3.713-3.713A3.717,3.717,0,0,1,16.852,20.051Z" transform="translate(4731.147 6240.178)" fill="#fff"></path></g></svg>