<svg xmlns="http://www.w3.org/2000/svg" width="93" height="93" viewBox="0 0 93 93"><g id="Group_14736" data-name="Group 14736" transform="translate(-507 -696)"><rect id="Rectangle_8994" data-name="Rectangle 8994" width="93" height="93" rx="46.5" transform="translate(507 696)" fill="#ff6801"></rect><path id="sobre" d="M29.725,1H7.822A7.832,7.832,0,0,0,0,8.822V27.6a7.832,7.832,0,0,0,7.822,7.822h21.9A7.832,7.832,0,0,0,37.547,27.6V8.822A7.832,7.832,0,0,0,29.725,1ZM7.822,4.129h21.9a4.693,4.693,0,0,1,4.349,2.952L22.093,19.063a4.7,4.7,0,0,1-6.64,0L3.473,7.081A4.693,4.693,0,0,1,7.822,4.129Zm21.9,28.16H7.822A4.693,4.693,0,0,1,3.129,27.6V11.169L13.242,21.275a7.833,7.833,0,0,0,11.064,0L34.418,11.169V27.6A4.693,4.693,0,0,1,29.725,32.289Z" transform="translate(535 724)" fill="#fff"></path></g></svg>