<svg xmlns="http://www.w3.org/2000/svg" width="93" height="93" viewBox="0 0 93 93"><g id="Group_14735" data-name="Group 14735" transform="translate(-925 -712)"><rect id="Rectangle_8993" data-name="Rectangle 8993" width="93" height="93" rx="46.5" transform="translate(925 712)" fill="#ff6801"></rect><path id="llamada-telefonica" d="M17.455,1.344A1.344,1.344,0,0,1,18.8,0,13.452,13.452,0,0,1,32.237,13.438a1.344,1.344,0,1,1-2.687,0A10.762,10.762,0,0,0,18.8,2.688a1.344,1.344,0,0,1-1.344-1.344ZM18.8,8.063a5.375,5.375,0,0,1,5.375,5.375,1.344,1.344,0,1,0,2.687,0A8.071,8.071,0,0,0,18.8,5.376a1.344,1.344,0,0,0,0,2.687ZM31.018,22.494a4.166,4.166,0,0,1,0,5.883l-1.223,1.41C18.79,40.322-7.991,13.548,2.382,2.508L3.928,1.164a4.14,4.14,0,0,1,5.814.054c.042.042,2.532,3.276,2.532,3.276a4.166,4.166,0,0,1-.009,5.754L10.708,12.2a17.174,17.174,0,0,0,9.314,9.332l1.969-1.565a4.166,4.166,0,0,1,5.753-.008S30.976,22.452,31.018,22.494Zm-1.849,1.954s-3.216-2.474-3.257-2.516a1.478,1.478,0,0,0-2.081,0c-.036.038-2.747,2.2-2.747,2.2a1.344,1.344,0,0,1-1.316.2A20.168,20.168,0,0,1,7.915,12.5a1.344,1.344,0,0,1,.195-1.344s2.159-2.712,2.2-2.747a1.478,1.478,0,0,0,0-2.081c-.042-.04-2.515-3.259-2.515-3.259a1.478,1.478,0,0,0-2.029.052L4.215,4.463C-3.366,13.579,19.842,35.5,27.83,27.951l1.224-1.411a1.506,1.506,0,0,0,.114-2.092Z" transform="translate(955.362 742.403)" fill="#fff"></path></g></svg>