<svg xmlns="http://www.w3.org/2000/svg" width="120" height="120" viewBox="0 0 120 120"><g id="Group_6814" data-name="Group 6814" transform="translate(-661 -1126)"><rect id="Rectangle_2367" data-name="Rectangle 2367" width="120" height="120" rx="60" transform="translate(661 1126)" fill="#ff6801"></rect><path id="automatizacion-de-equipos-en-la-nube" d="M29.357,23.735a1.664,1.664,0,0,0-2.274-.611l-1.627.937a7.471,7.471,0,0,0-3.811-2.216V19.978a1.665,1.665,0,1,0-3.33,0v1.867A7.453,7.453,0,0,0,14.5,24.061l-1.627-.937a1.664,1.664,0,1,0-1.662,2.884l1.637.942a6.765,6.765,0,0,0,0,4.372l-1.637.942a1.664,1.664,0,1,0,1.662,2.884l1.627-.937a7.471,7.471,0,0,0,3.811,2.216v1.867a1.665,1.665,0,0,0,3.33,0V36.427a7.453,7.453,0,0,0,3.811-2.216l1.627.937a1.664,1.664,0,1,0,1.662-2.884l-1.637-.942a6.765,6.765,0,0,0,0-4.372l1.637-.942a1.664,1.664,0,0,0,.613-2.273ZM19.98,33.3a4.163,4.163,0,1,1,4.163-4.163A4.167,4.167,0,0,1,19.98,33.3ZM39.96,20.811A11.694,11.694,0,0,1,34.133,30.9a1.664,1.664,0,1,1-1.667-2.881,8.36,8.36,0,0,0,4.163-7.213,9.177,9.177,0,0,0-7.355-8.981,5.017,5.017,0,0,1-3.593-2.786A9.992,9.992,0,0,0,6.8,11.6a10.227,10.227,0,0,0,.04,3.632,5,5,0,0,1-1.6,4.6A5.835,5.835,0,0,0,3.33,24.141a4.991,4.991,0,0,0,3.746,4.837,1.666,1.666,0,0,1-.415,3.279,1.706,1.706,0,0,1-.416-.052A8.324,8.324,0,0,1,0,24.141a9.176,9.176,0,0,1,3-6.777,1.66,1.66,0,0,0,.576-1.5,13.5,13.5,0,0,1-.055-4.812A13.217,13.217,0,0,1,14.147.227a13.41,13.41,0,0,1,14.544,7.39,1.714,1.714,0,0,0,1.235.947A12.512,12.512,0,0,1,39.96,20.809Z" transform="translate(700.998 1165.996)" fill="#fff"></path></g></svg>