<svg xmlns="http://www.w3.org/2000/svg" width="120" height="120" viewBox="0 0 120 120"><g id="Group_6818" data-name="Group 6818" transform="translate(-4484 -6198)"><rect id="Rectangle_2370" data-name="Rectangle 2370" width="120" height="120" rx="60" transform="translate(4484 6198)" fill="#ff6801"></rect><g id="barra-de-errores" transform="translate(4526.179 6240.181)"><path id="Path_9007" data-name="Path 9007" d="M35.211,33.1l-2.6-2.6a5.911,5.911,0,0,0-3.935-4.9A11.808,11.808,0,0,0,29.7,20.792a9.638,9.638,0,0,0-.149-1.485h3.119a1.485,1.485,0,1,0,0-2.97H28.84c-.446-1.515-.98-3.1-1.47-4.455h.846a5.938,5.938,0,0,0,5.94-5.94V4.456a1.485,1.485,0,0,0-2.97,0V5.941a2.979,2.979,0,0,1-2.97,2.97h-1.99c-.149-.356-.238-.579-.238-.594a8.884,8.884,0,0,0-16.068-.49L2.541.432A1.491,1.491,0,0,0,.432,2.541L33.1,35.211a1.458,1.458,0,0,0,1.054.431,1.521,1.521,0,0,0,1.054-.431,1.479,1.479,0,0,0,0-2.094Zm-22.84-23.6a5.949,5.949,0,0,1,10.9,0c.609,1.4,3.46,8.806,3.46,11.286a8.823,8.823,0,0,1-.624,3.222L12.149,10.04c.089-.208.163-.386.238-.535Z" transform="translate(0)" fill="#fff"></path><path id="Path_9008" data-name="Path 9008" d="M23.127,24.7a1.474,1.474,0,0,0-1.975-.7A8.906,8.906,0,0,1,8.425,15.952a15.38,15.38,0,0,1,.861-4.024,1.489,1.489,0,0,0-2.851-.861c-.045.149-.074.282-.119.431H2.485a1.485,1.485,0,1,0,0,2.97H5.6a10,10,0,0,0-.149,1.485A11.842,11.842,0,0,0,6.48,20.763a5.941,5.941,0,0,0-3.995,5.584v1.485a1.485,1.485,0,1,0,2.97,0V26.347A2.961,2.961,0,0,1,8.1,23.406a11.873,11.873,0,0,0,14.33,3.282,1.474,1.474,0,0,0,.7-1.975Z" transform="translate(0.486 4.855)" fill="#fff"></path></g></g></svg>