<svg xmlns="http://www.w3.org/2000/svg" width="120" height="120" viewBox="0 0 120 120"><g id="Group_6816" data-name="Group 6816" transform="translate(-4076 -6198)"><rect id="Rectangle_2369" data-name="Rectangle 2369" width="120" height="120" rx="60" transform="translate(4076 6198)" fill="#ff6801"></rect><path id="contrasena-de-email" d="M34.734,14.664a1.559,1.559,0,0,0-1.106-.472,1.49,1.49,0,0,0-1.112.456L22.048,25.117a4.8,4.8,0,0,1-6.611,0L4.894,14.572a1.557,1.557,0,0,0-1.1-.457H3.784a1.553,1.553,0,0,0-1.1.467A9.3,9.3,0,0,0,0,21.125V29.6a7.8,7.8,0,0,0,7.79,7.79H29.6a7.8,7.8,0,0,0,7.79-7.79V21.177a9.3,9.3,0,0,0-2.658-6.513ZM34.276,29.6A4.68,4.68,0,0,1,29.6,34.276H7.79A4.68,4.68,0,0,1,3.116,29.6V21.125a6.175,6.175,0,0,1,.827-3.094l9.29,9.292a7.8,7.8,0,0,0,11.017,0l9.211-9.211a6.161,6.161,0,0,1,.815,3.066V29.6ZM9.348,14.022h4.137l3.554,2.934a2.64,2.64,0,0,0,3.35.009l3.605-2.943h4.051a4.674,4.674,0,0,0,4.674-4.674V4.674A4.674,4.674,0,0,0,28.044,0H9.348A4.674,4.674,0,0,0,4.674,4.674V9.348A4.674,4.674,0,0,0,9.348,14.022ZM24.307,5.867a1.246,1.246,0,1,1,1.762-1.762l1.145,1.145,1.145-1.145a1.246,1.246,0,0,1,1.762,1.762L28.978,7.011l1.144,1.144a1.245,1.245,0,1,1-1.761,1.762L27.215,8.772,26.07,9.917A1.245,1.245,0,1,1,24.31,8.155l1.144-1.144L24.31,5.867Zm-8.616,0A1.247,1.247,0,1,1,17.453,4.1L18.6,5.247,19.74,4.1A1.247,1.247,0,1,1,21.5,5.867L20.359,7.011,21.5,8.155a1.246,1.246,0,1,1-1.761,1.764L18.6,8.775,17.454,9.918a1.246,1.246,0,1,1-1.761-1.764l1.144-1.144L15.694,5.867Zm-8.561,0A1.247,1.247,0,0,1,8.892,4.1l1.144,1.144L11.179,4.1a1.247,1.247,0,0,1,1.762,1.764L11.8,7.011l1.144,1.144A1.246,1.246,0,1,1,11.18,9.918L10.037,8.775,8.893,9.918A1.246,1.246,0,0,1,7.133,8.155L8.276,7.011,7.133,5.867Z" transform="translate(4119.304 6239)" fill="#fff"></path></g></svg>