<svg xmlns="http://www.w3.org/2000/svg" width="120" height="120" viewBox="0 0 120 120"><g id="Group_6817" data-name="Group 6817" transform="translate(-4514 -2663)"><rect id="Rectangle_2370" data-name="Rectangle 2370" width="120" height="120" rx="60" transform="translate(4514 2663)" fill="#ff6801"></rect><path id="auriculares-de-usuario" d="M14.361,18.991a6.95,6.95,0,0,0,.712,3.073,7.933,7.933,0,0,0-1.671,4.51A11,11,0,1,1,32.1,16.6a11.281,11.281,0,0,1,.182,3.66,1.992,1.992,0,0,1-1.993,1.731H30.2a1.942,1.942,0,0,1-1.885-2.229,7.17,7.17,0,0,0-.16-2.465,7,7,0,0,0-13.792,1.7ZM6.585,16.4A15,15,0,0,1,22.359,4.03c7.9.512,14.082,7.435,13.99,15.723a6.378,6.378,0,0,1-6.413,6.233h-4.81a3.988,3.988,0,1,0-1.052,4h5.861A10.366,10.366,0,0,0,40.347,19.863C40.5,9.426,32.655.69,22.617.042A18.81,18.81,0,0,0,8.372,5.136,19.071,19.071,0,0,0,2.664,15.663a2,2,0,0,0,1.977,2.331A1.952,1.952,0,0,0,6.585,16.4ZM21.358,33.984a16.44,16.44,0,0,0-15.9,11.4,2,2,0,1,0,3.816,1.191,12.62,12.62,0,0,1,12.084-8.592A12.618,12.618,0,0,1,33.44,46.575a2,2,0,0,0,1.909,1.4,2.061,2.061,0,0,0,.6-.09,2,2,0,0,0,1.313-2.5,16.44,16.44,0,0,0-15.9-11.4Z" transform="translate(4552.367 2699.011)" fill="#fff"></path></g></svg>