<svg xmlns="http://www.w3.org/2000/svg" width="120" height="120" viewBox="0 0 120 120"><g id="Group_6812" data-name="Group 6812" transform="translate(-3260 -6198)"><g id="Group_6811" data-name="Group 6811"><rect id="Rectangle_2270" data-name="Rectangle 2270" width="120" height="120" rx="60" transform="translate(3260 6198)" fill="#ff6801"></rect></g><path id="puntero-del-globo" d="M17.837,21.973l-5.97,13.148A1.537,1.537,0,0,1,10.5,36a1.5,1.5,0,0,1-1.342-.829L7.091,31.032,2.562,35.56A1.5,1.5,0,0,1,.442,33.439L4.97,28.911.832,26.842a1.5,1.5,0,0,1,.05-2.708s13.1-5.955,13.147-5.97a3,3,0,0,1,3.812,3.812ZM36,18A18.02,18.02,0,0,1,18,36h0c-.55,0-1.095-.025-1.633-.073a1.5,1.5,0,0,1,.267-2.988c.26.022.525.026.789.036a29.483,29.483,0,0,0,5.41-7.475H21.752a1.5,1.5,0,1,1,0-3h2.292a15.362,15.362,0,0,0,.708-4.5,15.4,15.4,0,0,0-.709-4.5H11.966a16.72,16.72,0,0,0-.453,1.78,1.5,1.5,0,0,1-2.948-.559c.078-.414.179-.818.282-1.219h-5.1c-.02,0-.034-.01-.054-.01A14.955,14.955,0,0,0,3,18c0,.46.023.917.061,1.366A1.5,1.5,0,0,1,1.7,21a1.484,1.484,0,0,1-1.627-1.36C.025,19.1,0,18.552,0,18a18,18,0,1,1,36,0ZM14.091,3.535A15.04,15.04,0,0,0,5.03,10.5H9.86a29.492,29.492,0,0,1,4.231-6.964ZM22.842,10.5A29.169,29.169,0,0,0,18,3.616,29.451,29.451,0,0,0,13.178,10.5h9.663Zm3.291,0h4.837a15.039,15.039,0,0,0-9.052-6.963A29.576,29.576,0,0,1,26.135,10.5Zm4.837,15H26.133a29.526,29.526,0,0,1-4.216,6.963A15.045,15.045,0,0,0,30.969,25.5ZM32.3,22.51a14.963,14.963,0,0,0,0-9.021c-.02,0-.035.01-.054.01h-5.1a18.016,18.016,0,0,1,.6,4.5,18.016,18.016,0,0,1-.6,4.5h5.1C32.27,22.5,32.285,22.51,32.3,22.51Z" transform="translate(3302.001 6240)" fill="#fff"></path></g></svg>