<svg xmlns="http://www.w3.org/2000/svg" width="120" height="120" viewBox="0 0 120 120"><g id="Group_6816" data-name="Group 6816" transform="translate(-1069 -1126)"><rect id="Rectangle_2369" data-name="Rectangle 2369" width="120" height="120" rx="60" transform="translate(1069 1126)" fill="#ff6801"></rect><path id="nube-descargar-alt" d="M32.158,11.2a1.839,1.839,0,0,1-1.328-1.018A14.408,14.408,0,0,0,15.2,2.245,14.217,14.217,0,0,0,3.781,13.876a14.544,14.544,0,0,0,.059,5.171,1.778,1.778,0,0,1-.619,1.612A9.84,9.84,0,0,0,9.839,37.78h19.68A13.419,13.419,0,0,0,32.156,11.2Zm-2.637,23H9.841A6.262,6.262,0,0,1,5.629,23.3a5.374,5.374,0,0,0,1.723-4.943,10.988,10.988,0,0,1-.043-3.9,10.768,10.768,0,0,1,8.536-8.7,11.449,11.449,0,0,1,2.049-.186,10.644,10.644,0,0,1,9.7,6.144,5.4,5.4,0,0,0,3.861,2.993A9.842,9.842,0,0,1,29.517,34.2Z" transform="translate(1108.532 1168.109)" fill="#fff"></path></g></svg>