<svg xmlns="http://www.w3.org/2000/svg" width="110" height="110" viewBox="0 0 110 110"><g id="Group_6814" data-name="Group 6814" transform="translate(-1150 -560)"><circle id="Ellipse_45" data-name="Ellipse 45" cx="55" cy="55" r="55" transform="translate(1150 560)" fill="#ff6900"></circle><path id="Path_9018" data-name="Path 9018" d="M624.125,61.448a9.093,9.093,0,1,1-9.093-9.093,9.093,9.093,0,0,1,9.093,9.093" transform="translate(590.062 550.917)" fill="#fff"></path><path id="Path_9019" data-name="Path 9019" d="M635.6,44.989H624.56a.7.7,0,0,0-.588,1.085A19.65,19.65,0,0,1,594.821,71.82a.439.439,0,0,0-.611.626,25.128,25.128,0,0,0,24.307,7.813,24.655,24.655,0,0,0,18.821-18.489A25.347,25.347,0,0,0,635.6,44.989" transform="translate(588.899 555.592)" fill="#fff"></path></g></svg>