<svg xmlns="http://www.w3.org/2000/svg" width="120" height="120" viewBox="0 0 120 120"><g id="Group_6811" data-name="Group 6811" transform="translate(-3292 -2663)"><rect id="Rectangle_2270" data-name="Rectangle 2270" width="120" height="120" rx="60" transform="translate(3292 2663)" fill="#ff6801"></rect><g id="verificacion-de-escudo" transform="translate(3332 2700.851)"><path id="Path_9020" data-name="Path 9020" d="M32.605,3.95,21.041.094a1.846,1.846,0,0,0-1.167,0L8.311,3.95A9.216,9.216,0,0,0,2,12.7V22.15C2,36.11,18.981,43.82,19.709,44.141a1.846,1.846,0,0,0,1.5,0c.727-.321,17.709-8.031,17.709-21.991V12.7A9.216,9.216,0,0,0,32.605,3.95Zm2.619,18.2c0,10.069-11.664,16.673-14.766,18.253C17.352,38.828,5.692,32.245,5.692,22.15V12.7A5.537,5.537,0,0,1,9.479,7.452l10.979-3.66,10.979,3.66A5.537,5.537,0,0,1,35.224,12.7Z" transform="translate(0)" fill="#fff"></path><path id="Path_9021" data-name="Path 9021" d="M22.21,8.548,14.48,16.3l-4.142-4.319a1.846,1.846,0,1,0-2.66,2.558l4.256,4.43a3.455,3.455,0,0,0,2.483,1.107h.061a3.457,3.457,0,0,0,2.464-1.021l7.885-7.885A1.853,1.853,0,1,0,22.21,8.548Z" transform="translate(4.339 6.772)" fill="#fff"></path></g></g></svg>