<svg xmlns="http://www.w3.org/2000/svg" width="120" height="120" viewBox="0 0 120 120"><g id="Group_6815" data-name="Group 6815" transform="translate(-865 -1126)"><rect id="Rectangle_2368" data-name="Rectangle 2368" width="120" height="120" rx="60" transform="translate(865 1126)" fill="#ff6801"></rect><path id="carpeta-abierta" d="M40.58,18.3a4.377,4.377,0,0,0-3.541-1.779h-.765V13.09a8.646,8.646,0,0,0-8.637-8.637H18.9a1.755,1.755,0,0,1-.772-.181l-5.45-2.726A5.208,5.208,0,0,0,10.364,1H6.909A6.914,6.914,0,0,0,0,7.909V30.364A8.646,8.646,0,0,0,8.637,39H30.328a8.606,8.606,0,0,0,8.295-6.23l2.646-10.564a4.379,4.379,0,0,0-.687-3.9ZM3.455,30.364V7.909A3.458,3.458,0,0,1,6.909,4.454h3.455a1.755,1.755,0,0,1,.772.181l5.45,2.726a5.208,5.208,0,0,0,2.318.546h8.733a5.188,5.188,0,0,1,5.182,5.182v3.432H14.881a6.935,6.935,0,0,0-6.545,4.7L4.553,33.549a5.159,5.159,0,0,1-1.1-3.187ZM37.939,21.29,35.292,31.852a5.151,5.151,0,0,1-4.964,3.693H8.637a5.116,5.116,0,0,1-1.048-.107L11.62,22.3a3.457,3.457,0,0,1,3.263-2.318H37.04a.939.939,0,0,1,.769.387A1.006,1.006,0,0,1,37.939,21.29Z" transform="translate(904 1165.999)" fill="#fff"></path></g></svg>