<svg xmlns="http://www.w3.org/2000/svg" width="120" height="120" viewBox="0 0 120 120"><g id="Group_6813" data-name="Group 6813" transform="translate(-5075 -5700)"><rect id="Rectangle_2367" data-name="Rectangle 2367" width="120" height="120" rx="60" transform="translate(5075 5700)" fill="#ff6801"></rect><path id="base-de-datos" d="M31.031,14.869a5.787,5.787,0,0,0-2.206-4.525A5.794,5.794,0,0,0,25.213,0H5.819A5.794,5.794,0,0,0,2.206,10.344a5.745,5.745,0,0,0,0,9.051A5.794,5.794,0,0,0,5.819,29.738H25.213a5.794,5.794,0,0,0,3.612-10.344,5.787,5.787,0,0,0,2.206-4.525ZM2.586,5.818A3.232,3.232,0,0,1,5.819,2.586h.646V3.879a1.293,1.293,0,0,0,2.586,0V2.586h2.586V3.879a1.293,1.293,0,0,0,2.586,0V2.586h10.99a3.232,3.232,0,1,1,0,6.465H5.819A3.232,3.232,0,0,1,2.586,5.818Zm25.859,18.1a3.232,3.232,0,0,1-3.232,3.232H5.819a3.232,3.232,0,1,1,0-6.465h.646V21.98a1.293,1.293,0,0,0,2.586,0V20.687h2.586V21.98a1.293,1.293,0,0,0,2.586,0V20.687h10.99A3.232,3.232,0,0,1,28.445,23.919ZM5.819,18.1a3.232,3.232,0,0,1,0-6.465h.646v1.293a1.293,1.293,0,0,0,2.586,0V11.637h2.586v1.293a1.293,1.293,0,0,0,2.586,0V11.637h10.99a3.232,3.232,0,0,1,0,6.465Z" transform="translate(5119.001 5745)" fill="#fff"></path></g></svg>