<svg xmlns="http://www.w3.org/2000/svg" width="120" height="120" viewBox="0 0 120 120"><g id="Group_6817" data-name="Group 6817" transform="translate(-5891 -5700)"><rect id="Rectangle_2370" data-name="Rectangle 2370" width="120" height="120" rx="60" transform="translate(5891 5700)" fill="#ff6801"></rect><g id="Group_6794" data-name="Group 6794" transform="translate(1179.196 2530.531)"><path id="fidelizacion-de-usuarios" d="M34.479,18.442,24.1,29.807a1.484,1.484,0,1,1-2.19-2L32.277,16.452a1.5,1.5,0,0,0-2.239-2l-6.578,7.23a4.68,4.68,0,0,1-3.719,3.042l-7.658,1.094a1.485,1.485,0,1,1-.42-2.94l7.658-1.094a1.7,1.7,0,0,0-.242-3.373H5.936a2.971,2.971,0,0,0-2.968,2.968V28.8A1.484,1.484,0,0,1,0,28.8v-7.42a5.942,5.942,0,0,1,5.936-5.936H19.079a4.652,4.652,0,0,1,3.98,2.267l4.784-5.259a4.467,4.467,0,0,1,6.636,5.982Z" transform="translate(4756 3225.135)" fill="#fff"></path><path id="globo" d="M14.013,0A14.013,14.013,0,1,0,28.026,14.013,14.013,14.013,0,0,0,14.013,0Zm3.762,8.174H10.25a22.9,22.9,0,0,1,3.762-5.358,22.853,22.853,0,0,1,3.762,5.358Zm.934,2.335a11.924,11.924,0,0,1,.556,3.5,11.924,11.924,0,0,1-.556,3.5h-9.4a11.924,11.924,0,0,1-.556-3.5,11.924,11.924,0,0,1,.556-3.5ZM10.977,2.751a22.976,22.976,0,0,0-3.3,5.423H3.915a11.714,11.714,0,0,1,7.061-5.423ZM2.335,14.013a11.663,11.663,0,0,1,.539-3.5H6.89a14.031,14.031,0,0,0-.467,3.5,14.031,14.031,0,0,0,.467,3.5H2.874A11.661,11.661,0,0,1,2.335,14.013Zm1.58,5.839H7.677a22.976,22.976,0,0,0,3.3,5.423,11.713,11.713,0,0,1-7.061-5.423Zm6.335,0h7.525a22.9,22.9,0,0,1-3.762,5.358,22.853,22.853,0,0,1-3.762-5.358Zm6.8,5.423a22.976,22.976,0,0,0,3.294-5.423H24.11A11.713,11.713,0,0,1,17.055,25.274ZM25.69,14.013a11.663,11.663,0,0,1-.539,3.5H21.136a14.031,14.031,0,0,0,.467-3.5,14.031,14.031,0,0,0-.467-3.5h4.013A11.661,11.661,0,0,1,25.69,14.013ZM20.349,8.174a22.976,22.976,0,0,0-3.294-5.423A11.714,11.714,0,0,1,24.11,8.174Z" transform="translate(4756.827 3209.619)" fill="#fff"></path></g></g></svg>