<svg xmlns="http://www.w3.org/2000/svg" width="120" height="120" viewBox="0 0 120 120"><g id="Group_6812" data-name="Group 6812" transform="translate(-3496 -2663)"><rect id="Rectangle_2366" data-name="Rectangle 2366" width="120" height="120" rx="60" transform="translate(3496 2663)" fill="#ff6801"></rect><path id="engranajes" d="M44.363,37.81l-1.945-1.092a9.973,9.973,0,0,0,.516-2.977,9.287,9.287,0,0,0-.516-2.977l1.945-1.092A1.986,1.986,0,1,0,42.438,26.2l-1.945,1.092A10,10,0,0,0,35,24.016V21.832a1.985,1.985,0,1,0-3.97,0v2.183a9.884,9.884,0,0,0-5.5,3.275L23.583,26.2a1.986,1.986,0,0,0-1.925,3.473L23.6,30.764a9.973,9.973,0,0,0-.516,2.977,9.287,9.287,0,0,0,.516,2.977L21.658,37.81a2.008,2.008,0,0,0-.774,2.7,1.953,1.953,0,0,0,1.727,1.012,1.931,1.931,0,0,0,.973-.258l1.945-1.092a10,10,0,0,0,5.5,3.275V45.63a1.985,1.985,0,0,0,3.97,0V43.447a9.884,9.884,0,0,0,5.5-3.275l1.945,1.092a1.88,1.88,0,0,0,.973.258,1.953,1.953,0,0,0,1.727-1.012A1.973,1.973,0,0,0,44.363,37.81ZM32.991,39.7a5.954,5.954,0,1,1,5.954-5.954A5.972,5.972,0,0,1,32.991,39.7ZM20.625,20.344l1.945,1.092a1.88,1.88,0,0,0,.973.258,1.953,1.953,0,0,0,1.727-1.012,1.973,1.973,0,0,0-.774-2.7L22.551,16.89a9.973,9.973,0,0,0,.516-2.977,9.287,9.287,0,0,0-.516-2.977L24.5,9.844a1.986,1.986,0,1,0-1.925-3.473L20.625,7.463a10,10,0,0,0-5.5-3.275v-2.2a1.985,1.985,0,0,0-3.97,0V4.168a9.884,9.884,0,0,0-5.5,3.275L3.715,6.351A1.986,1.986,0,0,0,1.79,9.825l1.945,1.092a9.973,9.973,0,0,0-.516,2.977,9.287,9.287,0,0,0,.516,2.977L1.79,17.962a2.008,2.008,0,0,0-.774,2.7,1.953,1.953,0,0,0,1.727,1.012,1.931,1.931,0,0,0,.973-.258L5.66,20.324a10,10,0,0,0,5.5,3.275v2.183a1.985,1.985,0,0,0,3.97,0V23.6a9.884,9.884,0,0,0,5.5-3.275Zm-7.483-.5A5.954,5.954,0,1,1,19.1,13.893a5.972,5.972,0,0,1-5.954,5.954Z" transform="translate(3533.238 2702.188)" fill="#fff"></path></g></svg>