<svg xmlns="http://www.w3.org/2000/svg" width="120" height="120" viewBox="0 0 120 120"><g id="Group_6814" data-name="Group 6814" transform="translate(-3668 -6198)"><rect id="Rectangle_2367" data-name="Rectangle 2367" width="120" height="120" rx="60" transform="translate(3668 6198)" fill="#ff6801"></rect><path id="comprobacion-de-candado" d="M27.109,15.946A11.173,11.173,0,0,0,16.878,22.66a1.556,1.556,0,0,0-.931-.335,1.594,1.594,0,0,0-1.595,1.595v3.189A1.594,1.594,0,0,0,15.946,28.7a1.147,1.147,0,0,0,.124-.026A11.156,11.156,0,1,0,27.109,15.946Zm0,19.136a7.973,7.973,0,1,1,7.973-7.973A7.982,7.982,0,0,1,27.109,35.082Zm5.136-9.906a1.593,1.593,0,0,1-.046,2.255l-3.527,3.387a3.745,3.745,0,0,1-2.636,1.07,3.792,3.792,0,0,1-2.653-1.075l-1.805-1.767a1.6,1.6,0,0,1,2.231-2.28l1.805,1.767a.6.6,0,0,0,.832,0l3.545-3.4A1.6,1.6,0,0,1,32.245,25.176Zm-16.3,11.5a1.594,1.594,0,0,1-1.595,1.595H7.973A7.982,7.982,0,0,1,0,30.3V20.73a7.978,7.978,0,0,1,4.784-7.3V11.163a11.163,11.163,0,1,1,22.325,0,1.595,1.595,0,1,1-3.189,0,7.973,7.973,0,0,0-15.946,0v1.595H20.73a1.595,1.595,0,0,1,0,3.189H7.973A4.79,4.79,0,0,0,3.189,20.73V30.3a4.79,4.79,0,0,0,4.784,4.784h6.379a1.594,1.594,0,0,1,1.595,1.595Z" transform="translate(3710.864 6238.045)" fill="#fff"></path></g></svg>