<svg xmlns="http://www.w3.org/2000/svg" width="120" height="120" viewBox="0 0 120 120"><g id="Group_6813" data-name="Group 6813" transform="translate(-381 -1091)"><rect id="Rectangle_2270" data-name="Rectangle 2270" width="120" height="120" rx="60" transform="translate(381 1091)" fill="#ff6801"></rect><path id="mover-a-la-carpeta" d="M31.533,4.326H20.7a1.709,1.709,0,0,1-.747-.183L14.7,1.521A4.931,4.931,0,0,0,12.48.99h-4.2A8.323,8.323,0,0,0,0,9.3V29.22a8.3,8.3,0,0,0,8.3,8.3H31.533a8.3,8.3,0,0,0,8.3-8.3v-16.6A8.3,8.3,0,0,0,31.533,4.326ZM8.3,4.326h4.2a1.709,1.709,0,0,1,.747.183l5.244,2.622h0a4.931,4.931,0,0,0,2.224.531H31.55a5,5,0,0,1,4.7,3.319H3.319V9.321A4.994,4.994,0,0,1,8.3,4.342ZM31.533,34.2H8.3A4.994,4.994,0,0,1,3.319,29.22V14.284H36.512V29.22A4.994,4.994,0,0,1,31.533,34.2Zm-1.66-9.958a5.055,5.055,0,0,1-1.693,3.767l-2.572,2.423a1.662,1.662,0,0,1-1.145.448,1.711,1.711,0,0,1-1.212-.514,1.653,1.653,0,0,1,.066-2.34l2.241-2.108H11.617a1.66,1.66,0,1,1,0-3.319H25.592l-2.241-2.108a1.655,1.655,0,0,1,2.274-2.406l2.589,2.423a5.037,5.037,0,0,1,1.676,3.751Z" transform="translate(421.084 1131.745)" fill="#fff"></path></g></svg>