<svg xmlns="http://www.w3.org/2000/svg" width="120" height="120" viewBox="0 0 120 120"><g id="Group_6811" data-name="Group 6811" transform="translate(-4667 -5700)"><rect id="Rectangle_2270" data-name="Rectangle 2270" width="120" height="120" rx="60" transform="translate(4667 5700)" fill="#ff6801"></rect><g id="el" transform="translate(4709.982 5742.981)"><path id="Path_9005" data-name="Path 9005" d="M34.036,14.181V22.69a7.1,7.1,0,0,1-7.091,7.091H18.436V31.2h4.255a1.418,1.418,0,0,1,0,2.836H11.345a1.418,1.418,0,1,1,0-2.836H15.6V29.781H7.091A7.1,7.1,0,0,1,0,22.69V14.181A7.085,7.085,0,0,1,5.32,7.314a1.417,1.417,0,1,1,.706,2.746,4.253,4.253,0,0,0-3.189,4.121V22.69a4.26,4.26,0,0,0,4.255,4.255H26.945A4.26,4.26,0,0,0,31.2,22.69V14.181a4.253,4.253,0,0,0-3.189-4.121,1.417,1.417,0,1,1,.706-2.746A7.085,7.085,0,0,1,34.036,14.181ZM8.94,12.953l1.352-.78a7.1,7.1,0,0,1,0-4.49L8.94,6.9a1.418,1.418,0,0,1,1.418-2.456l1.356.783A7.1,7.1,0,0,1,15.6,2.982V1.42a1.418,1.418,0,0,1,2.836,0V2.982a7.092,7.092,0,0,1,3.886,2.248l1.356-.783A1.418,1.418,0,0,1,25.1,6.9l-1.352.78a7.1,7.1,0,0,1,0,4.49l1.352.78a1.418,1.418,0,1,1-1.418,2.456l-1.356-.783a7.1,7.1,0,0,1-3.886,2.248v1.561a1.418,1.418,0,1,1-2.836,0V16.874a7.092,7.092,0,0,1-3.886-2.248l-1.356.783A1.418,1.418,0,0,1,8.94,12.953Zm3.823-3.026a4.255,4.255,0,1,0,4.255-4.255A4.26,4.26,0,0,0,12.764,9.926Z" fill="#fff"></path><path id="Path_9006" data-name="Path 9006" d="M12.627,9.755A2.127,2.127,0,1,0,10.5,7.627a2.128,2.128,0,0,0,2.127,2.127" transform="translate(4.391 2.299)" fill="#fff"></path></g></g></svg>