<svg xmlns="http://www.w3.org/2000/svg" width="120" height="120" viewBox="0 0 120 120"><g id="Group_6816" data-name="Group 6816" transform="translate(-4312 -2663)"><rect id="Rectangle_2372" data-name="Rectangle 2372" width="120" height="120" rx="60" transform="translate(4312 2663)" fill="#ff6801"></rect><path id="diploma" d="M16.667,20.5a1.708,1.708,0,1,1,0,3.417H11.542a1.708,1.708,0,1,1,0-3.417Zm10.25-5.125a1.708,1.708,0,0,0-1.708-1.708H11.542a1.708,1.708,0,1,0,0,3.417H25.209A1.708,1.708,0,0,0,26.917,15.375ZM11.542,10.25H25.209a1.708,1.708,0,1,0,0-3.417H11.542a1.708,1.708,0,1,0,0,3.417Zm20.5,22.967v6.548a1.232,1.232,0,0,1-2.1.871l-1.314-1.312-1.314,1.312a1.232,1.232,0,0,1-2.1-.871V33.218A6.811,6.811,0,0,1,28.626,20.5a6.729,6.729,0,0,1,1.708.243V8.542a5.125,5.125,0,0,0-5.125-5.125H11.542A5.125,5.125,0,0,0,6.417,8.542v20.5a5.125,5.125,0,0,0,5.125,5.125h8.542a1.708,1.708,0,0,1,0,3.417H11.542A8.552,8.552,0,0,1,3,29.042V8.542A8.552,8.552,0,0,1,11.542,0H25.209a8.552,8.552,0,0,1,8.542,8.542v14.32a6.748,6.748,0,0,1-1.708,10.356Zm0-5.884a3.417,3.417,0,1,0-3.417,3.417A3.417,3.417,0,0,0,32.042,27.334Z" transform="translate(4353 2702.501)" fill="#fff"></path></g></svg>