<svg xmlns="http://www.w3.org/2000/svg" width="120" height="120" viewBox="0 0 120 120"><g id="Group_6816" data-name="Group 6816" transform="translate(-5687 -5700)"><rect id="Rectangle_2372" data-name="Rectangle 2372" width="120" height="120" rx="60" transform="translate(5687 5700)" fill="#ff6801"></rect><path id="llave" d="M11.986,38.348A11.984,11.984,0,0,1,8.733,14.833a11.773,11.773,0,0,1,6.2-.077L27.57,2.124A7.19,7.19,0,0,1,32.693,0h0a5.655,5.655,0,0,1,5.65,5.65,7.2,7.2,0,0,1-2.122,5.124l-1.074,1.074a3.218,3.218,0,0,1-2.259.935H30.353v1.6a3.2,3.2,0,0,1-3.2,3.2h-1.6V20.11a3.173,3.173,0,0,1-.936,2.259l-1.039,1.039a11.719,11.719,0,0,1-.075,6.2,12.03,12.03,0,0,1-10.271,8.675,12.232,12.232,0,0,1-1.253.066Zm0-20.772a8.788,8.788,0,1,0,8.451,11.169,8.628,8.628,0,0,0-.16-5.273,1.6,1.6,0,0,1,.38-1.654l1.706-1.708V17.576a3.2,3.2,0,0,1,3.2-3.2h1.6v-1.6a3.2,3.2,0,0,1,3.2-3.2h2.534l1.074-1.074A4.025,4.025,0,0,0,35.147,5.65,2.456,2.456,0,0,0,32.694,3.2a4.027,4.027,0,0,0-2.865,1.187L16.518,17.693a1.6,1.6,0,0,1-1.655.379,8.727,8.727,0,0,0-2.884-.5Zm-4,11.185a1.6,1.6,0,1,0,1.6-1.6A1.6,1.6,0,0,0,7.984,28.761Z" transform="translate(5729.991 5743.879)" fill="#fff"></path></g></svg>