<svg xmlns="http://www.w3.org/2000/svg" width="120" height="120" viewBox="0 0 120 120"><g id="Group_6813" data-name="Group 6813" transform="translate(-3464 -6198)"><rect id="Rectangle_2366" data-name="Rectangle 2366" width="120" height="120" rx="60" transform="translate(3464 6198)" fill="#ff6801"></rect><path id="actualizacion-del-sistema-operativo" d="M15.75,10.5A2.25,2.25,0,1,1,18,12.75,2.251,2.251,0,0,1,15.75,10.5Zm-6.3,3.192.777-.447a8.089,8.089,0,0,1,0-5.49l-.777-.447a1.5,1.5,0,1,1,1.5-2.6l.777.449A8.241,8.241,0,0,1,16.5,2.394V1.5a1.5,1.5,0,0,1,3,0v.894a8.246,8.246,0,0,1,4.782,2.772l.8-.457a1.5,1.5,0,0,1,1.5,2.6l-.8.461a8.083,8.083,0,0,1,0,5.463l.8.46a1.5,1.5,0,0,1-1.5,2.6l-.8-.458a8.248,8.248,0,0,1-4.766,2.769l.011.878A1.5,1.5,0,0,1,18.045,21h-.019a1.5,1.5,0,0,1-1.5-1.482l-.011-.909a8.251,8.251,0,0,1-4.789-2.764l-.777.448a1.5,1.5,0,1,1-1.5-2.6Zm3.3-3.192A5.25,5.25,0,1,0,18,5.25,5.256,5.256,0,0,0,12.75,10.5ZM36,30a6.006,6.006,0,0,1-6,6H6A6,6,0,0,1,6,24H30A6.006,6.006,0,0,1,36,30ZM6,33H21V27H6a3,3,0,0,0,0,6Zm27-3a3,3,0,0,0-3-3H24v6h6A3,3,0,0,0,33,30Z" transform="translate(3506 6240)" fill="#fff"></path></g></svg>