<svg xmlns="http://www.w3.org/2000/svg" width="120" height="120" viewBox="0 0 120 120"><g id="Group_6812" data-name="Group 6812" transform="translate(-935 -1091)"><rect id="Rectangle_2365" data-name="Rectangle 2365" width="120" height="120" rx="60" transform="translate(935 1091)" fill="#ff6801"></rect><path id="computadora" d="M31.548,1H8.3A8.312,8.312,0,0,0,0,9.3V22.585a8.312,8.312,0,0,0,8.3,8.3h9.963v3.321H11.623a1.66,1.66,0,1,0,0,3.321h16.6a1.66,1.66,0,0,0,0-3.321H21.585V30.888h9.963a8.312,8.312,0,0,0,8.3-8.3V9.3a8.312,8.312,0,0,0-8.3-8.3ZM8.3,4.321H31.548A4.981,4.981,0,0,1,36.529,9.3V20.925H3.321V9.3A4.981,4.981,0,0,1,8.3,4.321ZM31.548,27.567H8.3a4.981,4.981,0,0,1-4.676-3.321h32.6A4.981,4.981,0,0,1,31.548,27.567Z" transform="translate(975.075 1131.735)" fill="#fff"></path></g></svg>