<svg xmlns="http://www.w3.org/2000/svg" width="110" height="110" viewBox="0 0 110 110"><g id="Group_6812" data-name="Group 6812" transform="translate(-180 -560)"><circle id="Ellipse_42" data-name="Ellipse 42" cx="55" cy="55" r="55" transform="translate(180 560)" fill="#ff6900"></circle><path id="Path_9009" data-name="Path 9009" d="M59.891,68.833a5.1,5.1,0,0,0,1.23.151,5.087,5.087,0,1,0-1.23-.151Zm-.633-8a3.57,3.57,0,0,1,1.848-.517,3.617,3.617,0,0,1,.871.107,3.593,3.593,0,1,1-2.719.41Zm-9.694,1.176a2.441,2.441,0,0,1,.078,4.233,2.3,2.3,0,0,0-.943,2.89,13.6,13.6,0,0,0,2,3.312,2.3,2.3,0,0,0,3,.517A2.441,2.441,0,0,1,57.4,75.009a2.3,2.3,0,0,0,2.027,2.261,13.453,13.453,0,0,0,3.873-.069,2.3,2.3,0,0,0,1.944-2.337,2.441,2.441,0,0,1,3.627-2.185,2.3,2.3,0,0,0,2.975-.627,13.441,13.441,0,0,0,1.87-3.392,2.3,2.3,0,0,0-1.051-2.848,2.441,2.441,0,0,1-.078-4.233,2.3,2.3,0,0,0,.943-2.891,13.6,13.6,0,0,0-2-3.312,2.3,2.3,0,0,0-3-.517,2.441,2.441,0,0,1-3.705-2.047A2.3,2.3,0,0,0,62.8,50.552a13.446,13.446,0,0,0-3.873.068,2.3,2.3,0,0,0-1.944,2.337,2.441,2.441,0,0,1-3.627,2.185,2.3,2.3,0,0,0-2.975.627,13.443,13.443,0,0,0-1.87,3.391,2.3,2.3,0,0,0,1.051,2.849Zm.332-2.328a11.969,11.969,0,0,1,1.665-3.019.836.836,0,0,1,1.08-.227,3.919,3.919,0,0,0,5.822-3.508.835.835,0,0,1,.705-.848,11.969,11.969,0,0,1,3.447-.061.836.836,0,0,1,.736.82A3.919,3.919,0,0,0,69.3,56.125a.836.836,0,0,1,1.087.188,12.123,12.123,0,0,1,1.778,2.951.836.836,0,0,1-.342,1.049,3.919,3.919,0,0,0,.125,6.794.836.836,0,0,1,.382,1.034,11.966,11.966,0,0,1-1.665,3.019.836.836,0,0,1-1.079.227,3.919,3.919,0,0,0-5.822,3.508.835.835,0,0,1-.705.848,11.968,11.968,0,0,1-3.447.061.836.836,0,0,1-.736-.82A3.922,3.922,0,0,0,52.926,71.7a.835.835,0,0,1-1.087-.188,12.118,12.118,0,0,1-1.778-2.951.836.836,0,0,1,.342-1.049,3.919,3.919,0,0,0-.125-6.794.836.836,0,0,1-.382-1.034ZM74.754,89.156a.739.739,0,0,1-.324.994,29.42,29.42,0,0,1-24.121,1.131l.476,1.785a.739.739,0,1,1-1.428.381L48.492,90.2a.737.737,0,0,1,.033-.485c.006-.013.012-.026.018-.039a.736.736,0,0,1,.311-.321l2.9-1.6a.739.739,0,0,1,.715,1.294l-1.578.872a27.791,27.791,0,0,0,22.87-1.091.738.738,0,0,1,.993.324Zm1.4-49.683a.739.739,0,0,1,1.023-.216,29.42,29.42,0,0,1,13.04,20.324l1.308-1.305a.739.739,0,0,1,1.044,1.046l-2.376,2.37a.736.736,0,0,1-.455.216c-.024,0-.048,0-.071,0a.735.735,0,0,1-.388-.111l-2.836-1.71a.739.739,0,1,1,.763-1.266l1.544.931A27.789,27.789,0,0,0,76.368,40.5a.739.739,0,0,1-.216-1.023Zm-31.083.655a.736.736,0,0,1,.132.444l-.063,3.311a.739.739,0,1,1-1.478-.028l.034-1.8a27.79,27.79,0,0,0-10.49,20.352.739.739,0,0,1-.737.7h-.04a.739.739,0,0,1-.7-.778A29.42,29.42,0,0,1,42.81,40.871l-1.784-.48a.739.739,0,0,1,.384-1.427l3.239.872a.736.736,0,0,1,.416.286h0Zm-8.587,26.8a7.891,7.891,0,0,0-5.906,13.125,2.716,2.716,0,0,1,.712,1.877,2.04,2.04,0,0,0,2.037,2.037h6.312a2.039,2.039,0,0,0,2.037-2.037,2.717,2.717,0,0,1,.712-1.877,7.891,7.891,0,0,0-5.905-13.125Zm4.8,12.144A4.191,4.191,0,0,0,40.2,81.928a.56.56,0,0,1-.559.559H33.326a.56.56,0,0,1-.559-.559,4.19,4.19,0,0,0-1.085-2.857,6.413,6.413,0,1,1,9.6,0Zm-5.353-8.754a.739.739,0,0,1-.5.918,3.734,3.734,0,0,0-2.654,3.126.739.739,0,0,1-1.467-.181,5.211,5.211,0,0,1,3.7-4.363A.739.739,0,0,1,35.929,70.317ZM40.39,85.575a.739.739,0,0,1-.739.739H33.314a.739.739,0,0,1,0-1.478h6.337A.739.739,0,0,1,40.39,85.575Zm-1.237,2.157a.739.739,0,0,1-.739.739H34.55a.739.739,0,1,1,0-1.478h3.864A.739.739,0,0,1,39.154,87.732Zm12.367-41.3H70.7a.739.739,0,0,0,.739-.739,10.348,10.348,0,0,0-7.206-9.846,5.423,5.423,0,1,0-6.248,0A10.348,10.348,0,0,0,50.781,45.7.739.739,0,0,0,51.52,46.436Zm5.647-15.014a3.945,3.945,0,1,1,3.946,3.945h0a3.949,3.949,0,0,1-3.943-3.945Zm3.943,5.423h0a8.864,8.864,0,0,1,8.82,8.113H52.29a8.864,8.864,0,0,1,8.82-8.113Zm24.641,30a10.07,10.07,0,1,0,10.07,10.07A10.082,10.082,0,0,0,85.751,66.841Zm0,18.662a8.592,8.592,0,1,1,8.592-8.592A8.6,8.6,0,0,1,85.751,85.5Zm4.158-6.638a2.7,2.7,0,0,1-2.693,2.693H86.49v1.375a.739.739,0,0,1-1.478,0V81.557H82.741a.739.739,0,1,1,0-1.478h4.476a1.214,1.214,0,1,0,0-2.429H84.286a2.693,2.693,0,0,1,0-5.385h.727V70.89a.739.739,0,0,1,1.478,0v1.375h2.271a.739.739,0,0,1,0,1.478H84.286a1.214,1.214,0,0,0,0,2.429h2.931A2.7,2.7,0,0,1,89.91,78.865Z" transform="translate(172.909 552.003)" fill="#f7f7f7" stroke="#f7f7f7" stroke-width="1"></path></g></svg>