<svg xmlns="http://www.w3.org/2000/svg" width="120" height="120" viewBox="0 0 120 120"><g id="Group_6815" data-name="Group 6815" transform="translate(-3872 -6198)"><rect id="Rectangle_2368" data-name="Rectangle 2368" width="120" height="120" rx="60" transform="translate(3872 6198)" fill="#ff6801"></rect><path id="comprobacion-de-la-nube" d="M18.92,36.595a4.822,4.822,0,0,1-3.432-1.422l-5.48-5.535A1.618,1.618,0,1,1,12.3,27.372L17.775,32.9a1.658,1.658,0,0,0,2.283,0l8.76-8.76a1.618,1.618,0,1,1,2.289,2.288l-8.761,8.76a4.815,4.815,0,0,1-3.425,1.411Zm-7.592-1.618a1.618,1.618,0,0,0-1.618-1.618H9.2a6.164,6.164,0,0,1-5.9-4.825,5.611,5.611,0,0,1,2.969-5.825,3.226,3.226,0,0,0,1.281-4.346,9.708,9.708,0,1,1,17.895-7.3,5.016,5.016,0,0,0,3.307,3.322,9.661,9.661,0,0,1,6.817,10.049,9.457,9.457,0,0,1-6.946,8.213,1.618,1.618,0,1,0,1.01,3.074A12.714,12.714,0,0,0,29.7,11.288,1.764,1.764,0,0,1,28.534,10.1,12.944,12.944,0,0,0,3.472,11.461a12.381,12.381,0,0,0,1.294,8.381A8.807,8.807,0,0,0,.1,28.99a9.454,9.454,0,0,0,9.1,7.6h.513A1.618,1.618,0,0,0,11.329,34.977Z" transform="translate(3912.574 6243.208)" fill="#fff"></path></g></svg>