<svg xmlns="http://www.w3.org/2000/svg" width="110" height="110" viewBox="0 0 110 110"><g id="Group_6811" data-name="Group 6811" transform="translate(-500 -560)"><circle id="Ellipse_43" data-name="Ellipse 43" cx="55" cy="55" r="55" transform="translate(500 560)" fill="#ff6900"></circle><g id="Group_6796" data-name="Group 6796" transform="translate(523 581)"><path id="Path_9010" data-name="Path 9010" d="M142.752,162.346a13.6,13.6,0,0,0-6.217,11.171,1.133,1.133,0,1,0,2.267,0,11.307,11.307,0,0,1,5.118-9.229,1.133,1.133,0,0,0-1.168-1.942Zm0,0" transform="translate(-118.402 -140.651)" fill="#fff" stroke="#fff" stroke-width="1"></path><path id="Path_9011" data-name="Path 9011" d="M58.933,28.333a5.676,5.676,0,0,0-5.552,4.533H39.552a5.646,5.646,0,0,0-1.909-3.17l3.829-7.03h3.975a5.667,5.667,0,1,0,0-2.267H41.933V12.936L45.8,9.067h5.312a5.667,5.667,0,1,0,0-2.267H45.8a2.28,2.28,0,0,0-1.6.664l-.972.972A25.328,25.328,0,0,0,40.8,7.674V2.267A2.269,2.269,0,0,0,38.533,0H29.467A2.269,2.269,0,0,0,27.2,2.267V7.673a26.83,26.83,0,0,0-7.015,2.9l-3.8-3.8a2.245,2.245,0,0,0-1.617-.681h0a2.226,2.226,0,0,0-1.6.672L6.768,13.151a2.257,2.257,0,0,0-.01,3.223l3.811,3.811a26.877,26.877,0,0,0-2.9,7.015h-5.4A2.269,2.269,0,0,0,0,29.467v9.067A2.269,2.269,0,0,0,2.267,40.8h5.4a26.877,26.877,0,0,0,2.9,7.015l-3.8,3.8a2.257,2.257,0,0,0-.01,3.223l6.394,6.393a2.237,2.237,0,0,0,1.614.682h0a2.233,2.233,0,0,0,1.606-.672l3.812-3.811a26.83,26.83,0,0,0,7.015,2.9v5.405A2.269,2.269,0,0,0,29.467,68h9.067A2.269,2.269,0,0,0,40.8,65.733V60.326a25.328,25.328,0,0,0,2.428-.763l.972.972a2.28,2.28,0,0,0,1.6.664h5.312a5.667,5.667,0,1,0,0-2.267H45.8l-3.869-3.869V47.6h3.514a5.666,5.666,0,1,0,0-2.267H41.473L37.644,38.3a5.646,5.646,0,0,0,1.909-3.17H53.381a5.667,5.667,0,1,0,5.552-6.8Zm-2.267-23.8a3.4,3.4,0,1,1-3.4,3.4A3.4,3.4,0,0,1,56.667,4.533Zm0,52.134a3.4,3.4,0,1,1-3.4,3.4A3.4,3.4,0,0,1,56.667,56.667ZM34,37.4A3.4,3.4,0,1,1,37.4,34,3.4,3.4,0,0,1,34,37.4ZM51,18.134a3.4,3.4,0,1,1-3.4,3.4A3.4,3.4,0,0,1,51,18.134ZM39.421,58.326a1.132,1.132,0,0,0-.888,1.106v6.3H29.467v-6.3a1.133,1.133,0,0,0-.891-1.107,24.6,24.6,0,0,1-7.954-3.283,1.136,1.136,0,0,0-1.409.156L14.764,59.64l-6.4-6.41L12.8,48.787a1.133,1.133,0,0,0,.155-1.409,24.634,24.634,0,0,1-3.284-7.953,1.133,1.133,0,0,0-1.107-.891h-6.3V29.467h6.3a1.133,1.133,0,0,0,1.107-.891,24.632,24.632,0,0,1,3.284-7.954,1.132,1.132,0,0,0-.155-1.409l-4.442-4.45,6.41-6.4L19.214,12.8a1.133,1.133,0,0,0,1.409.156,24.593,24.593,0,0,1,7.953-3.283,1.134,1.134,0,0,0,.891-1.108v-6.3h9.067v6.3a1.132,1.132,0,0,0,.888,1.106c.7.156,1.375.34,2.026.543l-1.116,1.116a2.251,2.251,0,0,0-.664,1.6V14.4a20.4,20.4,0,1,0,0,39.191v1.469a2.253,2.253,0,0,0,.664,1.6l1.116,1.116C40.8,57.986,40.122,58.17,39.421,58.326ZM51,43.067a3.4,3.4,0,1,1-3.4,3.4A3.4,3.4,0,0,1,51,43.067ZM39.667,46.755v4.456a18.133,18.133,0,1,1,0-34.423v4.456l-4.011,7.364A5.611,5.611,0,0,0,34,28.333a5.667,5.667,0,1,0,0,11.334,5.611,5.611,0,0,0,1.655-.275ZM58.933,37.4a3.4,3.4,0,1,1,3.4-3.4A3.4,3.4,0,0,1,58.933,37.4Zm0,0" fill="#fff" stroke="#fff" stroke-width="1"></path></g></g></svg>