<svg xmlns="http://www.w3.org/2000/svg" width="120" height="120" viewBox="0 0 120 120"><g id="Group_6813" data-name="Group 6813" transform="translate(-3700 -2663)"><rect id="Rectangle_2367" data-name="Rectangle 2367" width="120" height="120" rx="60" transform="translate(3700 2663)" fill="#ff6801"></rect><path id="membresia-vip" d="M37.421,3H9.848A9.859,9.859,0,0,0,0,12.848V28.6a9.859,9.859,0,0,0,9.848,9.848H37.421A9.859,9.859,0,0,0,47.268,28.6V12.848A9.859,9.859,0,0,0,37.421,3Zm5.909,25.6a5.916,5.916,0,0,1-5.909,5.909H9.848A5.916,5.916,0,0,1,3.939,28.6V12.848A5.916,5.916,0,0,1,9.848,6.939H37.421a5.916,5.916,0,0,1,5.909,5.909ZM39.39,12.848a1.969,1.969,0,0,1-1.97,1.97H29.543a1.97,1.97,0,1,1,0-3.939h7.878A1.969,1.969,0,0,1,39.39,12.848Zm0,7.878a1.969,1.969,0,0,1-1.97,1.97H29.543a1.97,1.97,0,1,1,0-3.939h7.878A1.969,1.969,0,0,1,39.39,20.726ZM35.451,28.6a1.969,1.969,0,0,1-1.97,1.97H29.543a1.97,1.97,0,1,1,0-3.939h3.939A1.969,1.969,0,0,1,35.451,28.6ZM24.53,18.723a1.478,1.478,0,0,1-.437,1.637L20.6,23.205l1.446,4.4a1.476,1.476,0,0,1-2.208,1.7L15.77,26.66l-4,2.677a1.477,1.477,0,0,1-2.231-1.67l1.39-4.455L7.417,20.353a1.476,1.476,0,0,1,.955-2.6h4.433l1.57-4.4a1.478,1.478,0,0,1,2.769,0l1.57,4.4h4.433a1.479,1.479,0,0,1,1.389.971Z" transform="translate(3736 2705.274)" fill="#fff"></path></g></svg>