<svg xmlns="http://www.w3.org/2000/svg" width="120" height="120" viewBox="0 0 120 120"><g id="Group_6814" data-name="Group 6814" transform="translate(-3904 -2663)"><rect id="Rectangle_2368" data-name="Rectangle 2368" width="120" height="120" rx="60" transform="translate(3904 2663)" fill="#ff6801"></rect><path id="analitica-de-red" d="M24.937,21.681l3.768-.366a5.818,5.818,0,1,0-.323-3.309l-4.087.4A8.3,8.3,0,0,0,22.7,15.98l3.058-4.616a5.708,5.708,0,0,0,1.676.276,5.892,5.892,0,1,0-4.45-2.114L20,14.035a8.145,8.145,0,0,0-6.748,0L10.27,9.527A5.762,5.762,0,0,0,11.64,5.82a5.82,5.82,0,1,0-5.82,5.82A5.708,5.708,0,0,0,7.5,11.364l3.058,4.616A8.183,8.183,0,0,0,10.019,26.6L8.17,28.773a5.85,5.85,0,1,0,2.529,2.16L12.518,28.8a8.111,8.111,0,0,0,9.015-.5l3.936,3.407a5.861,5.861,0,1,0,2.178-2.513L23.759,25.83a8.218,8.218,0,0,0,1.179-4.146Zm9.153-5.052A2.494,2.494,0,1,1,31.6,19.123,2.5,2.5,0,0,1,34.089,16.629Zm-6.652-13.3A2.494,2.494,0,1,1,24.943,5.82,2.5,2.5,0,0,1,27.438,3.326ZM3.326,5.82A2.494,2.494,0,1,1,5.82,8.314,2.5,2.5,0,0,1,3.326,5.82ZM5.82,36.584a2.494,2.494,0,1,1,2.494-2.494A2.5,2.5,0,0,1,5.82,36.584Zm10.809-9.977a4.989,4.989,0,1,1,4.989-4.989A4.995,4.995,0,0,1,16.629,26.606ZM30.764,31.6a2.494,2.494,0,1,1-2.494,2.494A2.5,2.5,0,0,1,30.764,31.6Z" transform="translate(3944 2703.044)" fill="#fff"></path></g></svg>