<svg xmlns="http://www.w3.org/2000/svg" width="120" height="120" viewBox="0 0 120 120"><g id="Group_6817" data-name="Group 6817" transform="translate(-4280 -6198)"><rect id="Rectangle_2372" data-name="Rectangle 2372" width="120" height="120" rx="60" transform="translate(4280 6198)" fill="#ff6801"></rect><path id="ventana-alternativa" d="M32.665,1H8.6A8.6,8.6,0,0,0,0,9.6v20.63a8.6,8.6,0,0,0,8.6,8.6H32.665a8.6,8.6,0,0,0,8.6-8.6V9.6A8.6,8.6,0,0,0,32.665,1ZM8.6,4.438H32.665A5.173,5.173,0,0,1,37.822,9.6v3.438H3.438V9.6A5.173,5.173,0,0,1,8.6,4.438ZM32.665,35.384H8.6a5.173,5.173,0,0,1-5.158-5.158V16.473H37.822V30.226A5.173,5.173,0,0,1,32.665,35.384ZM30.945,8.736a2.579,2.579,0,1,1,2.579,2.579A2.575,2.575,0,0,1,30.945,8.736Zm-6.877,0a2.579,2.579,0,1,1,2.579,2.579A2.575,2.575,0,0,1,24.069,8.736Zm-6.877,0a2.579,2.579,0,1,1,2.579,2.579A2.575,2.575,0,0,1,17.192,8.736Z" transform="translate(4319 6238)" fill="#fff"></path></g></svg>