<svg xmlns="http://www.w3.org/2000/svg" width="120" height="120" viewBox="0 0 120 120"><g id="Group_6811" data-name="Group 6811" transform="translate(-660 -1091)"><rect id="Rectangle_2364" data-name="Rectangle 2364" width="120" height="120" rx="60" transform="translate(660 1091)" fill="#ff6801"></rect><path id="reunion-alternativa" d="M.844,10.977A4.222,4.222,0,1,1,5.066,15.2,4.221,4.221,0,0,1,.844,10.977ZM15.2,34.619v4.222a1.689,1.689,0,0,1-3.377,0V34.619a.845.845,0,0,0-.844-.844s-5.97,0-6,0A5.072,5.072,0,0,1,0,28.708V21.953a5.066,5.066,0,1,1,10.132,0V30.4h.844A4.228,4.228,0,0,1,15.2,34.619ZM6.755,30.4V21.953a1.689,1.689,0,1,0-3.377,0v6.755A1.692,1.692,0,0,0,5.066,30.4ZM35.463,15.2a4.222,4.222,0,1,0-4.222-4.222A4.221,4.221,0,0,0,35.463,15.2Zm5.066,6.755v6.755a5.072,5.072,0,0,1-4.978,5.064l-6,0a.845.845,0,0,0-.844.844v4.222a1.689,1.689,0,0,1-3.377,0V34.619A4.228,4.228,0,0,1,29.553,30.4H30.4V21.953a5.066,5.066,0,1,1,10.132,0Zm-3.377,0a1.689,1.689,0,1,0-3.377,0V30.4h1.689a1.692,1.692,0,0,0,1.689-1.689ZM27.02,23.642a1.689,1.689,0,0,0-1.689-1.689H15.2a1.689,1.689,0,1,0,0,3.377H25.331A1.689,1.689,0,0,0,27.02,23.642ZM11.821,8.525V4.985A4.99,4.99,0,0,1,16.806,0h6.917a4.99,4.99,0,0,1,4.985,4.985v3.54A4.993,4.993,0,0,1,24.2,13.488l-2.347,1.944a2.467,2.467,0,0,1-1.65.616,2.587,2.587,0,0,1-1.724-.655l-2.329-1.927A4.992,4.992,0,0,1,11.821,8.525Zm3.377,0a1.609,1.609,0,0,0,1.608,1.608,1.7,1.7,0,0,1,1.077.387l2.3,1.9,2.3-1.9a1.684,1.684,0,0,1,1.077-.388h.162a1.609,1.609,0,0,0,1.608-1.608V4.983a1.609,1.609,0,0,0-1.608-1.608H16.808A1.609,1.609,0,0,0,15.2,4.983v3.54ZM6.755,37.152H1.689a1.689,1.689,0,1,0,0,3.377H6.755a1.689,1.689,0,1,0,0-3.377Zm32.086,0H33.774a1.689,1.689,0,1,0,0,3.377h5.066a1.689,1.689,0,0,0,0-3.377Z" transform="translate(700 1131)" fill="#fff"></path></g></svg>