<svg xmlns="http://www.w3.org/2000/svg" width="120" height="120" viewBox="0 0 120 120"><g id="Group_6815" data-name="Group 6815" transform="translate(-4108 -2663)"><rect id="Rectangle_2369" data-name="Rectangle 2369" width="120" height="120" rx="60" transform="translate(4108 2663)" fill="#ff6801"></rect><g id="Group_6798" data-name="Group 6798" transform="translate(4136 2700)"><path id="Path_9012" data-name="Path 9012" d="M48.09,69.006a7.45,7.45,0,1,1,7.519-7.45A7.494,7.494,0,0,1,48.09,69.006Zm0-12.809a5.36,5.36,0,1,0,5.428,5.359A5.4,5.4,0,0,0,48.09,56.2Zm0,0" transform="translate(-35.269 -47.035)" fill="#fff" stroke="#fff" stroke-width="1"></path><path id="Path_9013" data-name="Path 9013" d="M15.847,200.7H2.733A2.727,2.727,0,0,1,0,197.983v-3.42a12.847,12.847,0,0,1,20.474-10.188,1.046,1.046,0,0,1-1.241,1.683,10.756,10.756,0,0,0-17.141,8.5v3.42a.634.634,0,0,0,.642.624H15.847a1.045,1.045,0,1,1,0,2.091Zm0,0" transform="translate(0 -158.1)" fill="#fff" stroke="#fff" stroke-width="1"></path><path id="Path_9014" data-name="Path 9014" d="M351.459,194.647H338.345a1.045,1.045,0,0,1,0-2.091h13.115a.634.634,0,0,0,.642-.624v-3.42a10.68,10.68,0,0,0-10.731-10.606,10.827,10.827,0,0,0-6.793,2.4,1.045,1.045,0,1,1-1.315-1.625,12.926,12.926,0,0,1,8.108-2.862,12.774,12.774,0,0,1,12.821,12.7v3.42A2.727,2.727,0,0,1,351.459,194.647Zm0,0" transform="translate(-289.373 -152.84)" fill="#fff" stroke="#fff" stroke-width="1"></path><path id="Path_9015" data-name="Path 9015" d="M347.87,65.053a7.45,7.45,0,1,1,7.52-7.45A7.493,7.493,0,0,1,347.87,65.053Zm0-12.809A5.36,5.36,0,1,0,353.3,57.6,5.4,5.4,0,0,0,347.87,52.243Zm0,0" transform="translate(-295.874 -43.598)" fill="#fff" stroke="#fff" stroke-width="1"></path><path id="Path_9016" data-name="Path 9016" d="M145.059,181.468H116.68a3.41,3.41,0,0,1-3.419-3.394v-4.81a17.609,17.609,0,0,1,35.216,0v4.81A3.41,3.41,0,0,1,145.059,181.468ZM130.87,157.923a15.447,15.447,0,0,0-15.517,15.341v4.81a1.317,1.317,0,0,0,1.328,1.3h28.378a1.317,1.317,0,0,0,1.328-1.3v-4.81A15.447,15.447,0,0,0,130.87,157.923Zm0,0" transform="translate(-98.46 -135.468)" fill="#fff" stroke="#fff" stroke-width="1"></path><path id="Path_9017" data-name="Path 9017" d="M180.944,19.143a9.628,9.628,0,0,1-9.662-9.572,9.663,9.663,0,0,1,19.325,0A9.628,9.628,0,0,1,180.944,19.143Zm0-17.052a7.535,7.535,0,0,0-7.571,7.481,7.572,7.572,0,0,0,15.143,0A7.535,7.535,0,0,0,180.944,2.091Zm0,0" transform="translate(-148.898)" fill="#fff" stroke="#fff" stroke-width="1"></path></g></g></svg>