<svg xmlns="http://www.w3.org/2000/svg" width="120" height="120" viewBox="0 0 120 120"><g id="Group_6817" data-name="Group 6817" transform="translate(-457 -1126)"><rect id="Rectangle_2366" data-name="Rectangle 2366" width="120" height="120" rx="60" transform="translate(457 1126)" fill="#ff6801"></rect><path id="respaldo-en-la-nube" d="M38.984,20.3a12.074,12.074,0,0,1-3.749,8.791,1.624,1.624,0,0,1-2.25-2.344A8.854,8.854,0,0,0,35.734,20.3a8.954,8.954,0,0,0-7.175-8.762,4.894,4.894,0,0,1-3.505-2.717,9.748,9.748,0,0,0-18.418,2.49,10,10,0,0,0,.037,3.541A4.889,4.889,0,0,1,5.111,19.34,5.686,5.686,0,0,0,8.3,29.2a1.624,1.624,0,0,1-.177,3.239,1.723,1.723,0,0,1-.18-.01A8.935,8.935,0,0,1,2.924,16.938a1.626,1.626,0,0,0,.562-1.465,13.193,13.193,0,0,1-.054-4.693A12.907,12.907,0,0,1,13.8.22a13.085,13.085,0,0,1,14.187,7.21,1.687,1.687,0,0,0,1.205.924A12.209,12.209,0,0,1,38.983,20.3ZM29.737,32.125l-2.123,2.019V19.49a1.624,1.624,0,1,0-3.249,0V34.169l-2.123-2.043a1.624,1.624,0,0,0-2.253,2.341l3.7,3.562a3.249,3.249,0,0,0,2.3.953,3.2,3.2,0,0,0,2.268-.931l3.725-3.585a1.624,1.624,0,0,0-2.253-2.341Zm-10.245-6.95a1.625,1.625,0,0,0,1.127-2.8l-3.7-3.562a3.244,3.244,0,0,0-4.571-.023L8.623,22.379a1.624,1.624,0,0,0,2.253,2.341L13,22.7V37.355a1.624,1.624,0,0,0,3.249,0V22.676L18.37,24.72a1.613,1.613,0,0,0,1.126.453Z" transform="translate(498.001 1166.996)" fill="#fff"></path></g></svg>