<svg xmlns="http://www.w3.org/2000/svg" width="41" height="41" viewBox="0 0 41 41"><path id="monedas_1_" data-name="monedas (1)" d="M28.188,0C21,0,15.375,3.377,15.375,7.688v4.419a21.915,21.915,0,0,0-2.562-.149C5.627,11.958,0,15.336,0,19.646V33.313C0,37.623,5.627,41,12.813,41c5.836,0,10.645-2.228,12.244-5.374a21.654,21.654,0,0,0,3.131.249C35.373,35.875,41,32.5,41,28.188V7.688C41,3.377,35.373,0,28.188,0Zm0,3.417c5.378,0,9.4,2.255,9.4,4.271s-4.018,4.271-9.4,4.271-9.4-2.255-9.4-4.271S22.81,3.417,28.188,3.417ZM12.813,15.375c5.378,0,9.4,2.255,9.4,4.271s-4.018,4.271-9.4,4.271-9.4-2.255-9.4-4.271S7.435,15.375,12.813,15.375Zm-9.4,9.536a17.628,17.628,0,0,0,9.4,2.422,17.628,17.628,0,0,0,9.4-2.422v1.568c0,2.016-4.018,4.271-9.4,4.271s-9.4-2.255-9.4-4.271Zm9.4,12.672c-5.378,0-9.4-2.255-9.4-4.271V31.744a17.628,17.628,0,0,0,9.4,2.422,17.628,17.628,0,0,0,9.4-2.422v1.568C22.208,35.328,18.19,37.583,12.813,37.583Zm15.375-5.125a18.227,18.227,0,0,1-2.562-.2V28.878a21.811,21.811,0,0,0,2.563.164,17.628,17.628,0,0,0,9.4-2.422v1.568C37.583,30.2,33.565,32.458,28.188,32.458Zm0-6.833a18.226,18.226,0,0,1-2.562-.2V22.044a21.811,21.811,0,0,0,2.563.164,17.628,17.628,0,0,0,9.4-2.422v1.568c0,2.016-4.018,4.271-9.4,4.271Zm0-6.833a18.282,18.282,0,0,1-2.7-.217,6.791,6.791,0,0,0-2.94-3.965,20.468,20.468,0,0,0,5.636.767,17.628,17.628,0,0,0,9.4-2.422v1.568c0,2.016-4.018,4.271-9.4,4.271Z" fill="#ff6801"></path></svg>