<svg xmlns="http://www.w3.org/2000/svg" width="38.775" height="38.774" viewBox="0 0 38.775 38.774"><path id="usuario-de-pizarra" d="M11.309,22.618a6.462,6.462,0,1,0-6.462-6.462A6.469,6.469,0,0,0,11.309,22.618Zm0-9.693a3.231,3.231,0,1,1-3.231,3.231A3.234,3.234,0,0,1,11.309,12.925ZM22.618,37.158a1.616,1.616,0,0,1-3.231,0,8.078,8.078,0,1,0-16.156,0,1.616,1.616,0,0,1-3.231,0,11.309,11.309,0,1,1,22.618,0ZM38.774,8.078V21A8.087,8.087,0,0,1,30.7,29.08H24.234a1.615,1.615,0,0,1-1.616-1.616V24.234a1.615,1.615,0,0,1,1.616-1.616H29.08A1.615,1.615,0,0,1,30.7,24.234v1.616A4.853,4.853,0,0,0,35.543,21V8.078A4.853,4.853,0,0,0,30.7,3.231h-15.4a4.864,4.864,0,0,0-4.2,2.425A1.616,1.616,0,0,1,8.3,4.037a8.109,8.109,0,0,1,7-4.037H30.7a8.087,8.087,0,0,1,8.078,8.078Z" fill="#ff6801"></path></svg>